<svg width="39" height="15" viewBox="0 0 39 15" fill="none" xmlns="http://www.w3.org/2000/svg">
<g clip-path="url(#clip0_649_6072)">
<path d="M10.9019 0H0V14.7115H2.51431V8.36539H8.38761V14.7115H17.1623V12.4863L10.9019 12.4863V0ZM8.38761 6.18129H2.51431V2.22525H8.38761V6.18129Z" fill="white"/>
<path d="M27.0721 8.2006C27.0721 5.74867 26.0311 3.72949 22.7508 3.72949C20.099 3.72949 18.724 5.58384 18.4489 7.31463H20.7079C20.9632 6.28444 21.7293 5.64565 22.7899 5.64565C23.9882 5.64565 24.715 6.16083 24.715 7.00559C24.715 7.91216 24.1061 8.1594 22.8096 8.36548C21.3561 8.59216 17.9775 8.85999 17.9775 11.8064C17.9775 13.5372 19.2739 15.0001 21.5328 15.0001C23.5169 15.0001 24.3615 13.8668 24.7347 13.0221H24.7543V13.5372C24.7543 13.9287 24.774 14.3201 24.8329 14.7116H27.249C27.1311 14.0523 27.0721 13.0015 27.0721 12.1773V8.20071V8.2006ZM24.7543 9.76651C24.7543 12.2596 23.4971 13.1044 22.1613 13.1044C21.0025 13.1044 20.3543 12.5069 20.3543 11.7034C20.3543 10.8586 21.022 10.4053 22.3972 10.1374C23.9685 9.80777 24.5186 9.33391 24.7543 8.77753V9.76651Z" fill="white"/>
<path d="M34.2662 3.77062C32.4983 3.77062 31.3983 4.96568 31.0644 5.89286H31.0448V0H28.5894V14.7115H31.0841V12.9602H31.1037C31.4573 13.8255 32.518 14.9794 34.2465 14.9794C37.0162 14.9794 39.0002 12.7541 39.0002 9.35438C39.0002 5.97532 37.0358 3.77062 34.2662 3.77062ZM33.7555 12.9807C31.7912 12.9807 30.868 11.2294 30.868 9.35438C30.868 7.52058 31.8502 5.78984 33.7555 5.78984C35.602 5.78984 36.6234 7.35581 36.6234 9.35438C36.6234 11.3942 35.6412 12.9807 33.7555 12.9807Z" fill="white"/>
</g>
<defs>
<clipPath id="clip0_649_6072">
<rect width="39" height="15" fill="white"/>
</clipPath>
</defs>
</svg>
