<?xml version="1.0" encoding="iso-8859-1"?>
<!-- Generator: Adobe Illustrator 29.8.2, SVG Export Plug-In . SVG Version: 9.03 Build 0)  -->
<svg version="1.1" id="a" xmlns="http://www.w3.org/2000/svg" xmlns:xlink="http://www.w3.org/1999/xlink" x="0px" y="0px"
	 width="776.368px" height="284.671px" viewBox="0 0 776.368 284.671" enable-background="new 0 0 776.368 284.671"
	 xml:space="preserve">
<g>
	<path d="M217.023,0H0v279.196h50.052V158.759h116.919v120.437h174.677v-42.23l-124.625-0.001L217.023,0L217.023,0z
		 M166.971,117.309H50.052V42.231h116.919V117.309z"/>
	<path d="M538.926,155.633v-0.002c0-46.533-20.723-84.853-86.025-84.853c-52.789,0-80.161,35.192-85.636,68.039h44.968
		c5.083-19.551,20.334-31.674,41.448-31.674c23.854,0,38.322,9.777,38.322,25.809c0,17.205-12.122,21.897-37.93,25.808
		c-28.935,4.302-96.192,9.385-96.192,65.302c0,32.847,25.806,60.61,70.775,60.61c39.496,0,56.31-21.507,63.739-37.539h0.391v9.776
		c0,7.43,0.391,14.859,1.563,22.289h48.097c-2.346-12.513-3.52-32.455-3.52-48.097L538.926,155.633L538.926,155.633z
		 M492.785,185.349c0,47.314-25.026,63.347-51.618,63.347c-23.069,0-35.973-11.34-35.973-26.589
		c0-16.033,13.293-24.636,40.668-29.719c31.281-6.256,42.231-15.249,46.923-25.808V185.349z"/>
	<path d="M682.128,71.559L682.128,71.559c-35.193,0-57.09,22.68-63.737,40.276H618V0h-48.88v279.196h49.663v-33.237h0.389
		c7.04,16.422,28.155,38.321,62.565,38.321c55.135,0,94.631-42.231,94.631-106.752C776.368,113.4,737.263,71.559,682.128,71.559z
		 M671.961,246.349c-39.102,0-57.481-33.237-57.481-68.821c0-34.802,19.553-67.648,57.481-67.648
		c36.759,0,57.092,29.719,57.092,67.648C729.053,216.24,709.5,246.349,671.961,246.349z"/>
</g>
</svg>
