<svg width="109" height="14" viewBox="0 0 109 14" fill="none" xmlns="http://www.w3.org/2000/svg">
<g clip-path="url(#clip0_638_5340)">
<path d="M0 13.7119H2.49101V7.7969H8.31009V5.76129H2.49101V2.07402H8.81608V0H0V13.7119Z" fill="white"/>
<path d="M16.1057 8.31544C16.1057 10.7543 15.1327 11.9451 13.7509 11.9451C12.3303 11.9451 11.8827 10.8697 11.8827 9.39086V3.7832H9.5083V9.90937C9.5083 12.2714 10.5203 13.9807 13.1282 13.9807C14.6852 13.9807 15.5997 13.1165 16.1447 11.9834V13.7117H18.4801V3.7832H16.1057V8.31544Z" fill="white"/>
<path d="M25.3075 3.51452C23.7506 3.51452 22.8359 4.3595 22.2909 5.51173V3.78338H19.9556V13.712H22.3494V9.17979C22.3494 6.7217 23.3224 5.55014 24.6847 5.55014C26.1054 5.55014 26.5726 6.60635 26.5726 8.10426V13.7119H28.9273V7.56655C28.9273 5.20435 27.9154 3.51452 25.3075 3.51452Z" fill="white"/>
<path d="M35.3462 12.118C33.5363 12.118 32.388 10.6393 32.388 8.75731C32.388 6.85612 33.5362 5.3581 35.3462 5.3581C36.5917 5.3581 37.3701 5.99183 37.7204 6.97123H39.978C39.6083 4.878 37.8373 3.5144 35.3656 3.5144C32.3685 3.5144 30.0332 5.53081 30.0332 8.73798C30.0332 11.9452 32.3685 14 35.3656 14C37.7789 14 39.5888 12.7133 40.0364 10.4279H37.7789C37.4286 11.5803 36.514 12.118 35.3463 12.118H35.3462Z" fill="white"/>
<path d="M44.211 10.1399V5.58842H46.1961V3.78325H44.211V0.499268H41.8756V3.78325H40.2798V5.58842H41.8756V10.4471C41.8756 12.3675 42.6152 13.7887 45.0089 13.7503H46.4804V11.8683H45.5149C44.4835 11.8683 44.211 11.2537 44.211 10.1399Z" fill="white"/>
<path d="M50.4663 0H47.9946V2.24698H50.4663V0Z" fill="white"/>
<path d="M50.3498 3.7832H47.9561V13.7119H50.3498V3.7832Z" fill="white"/>
<path d="M56.6907 3.5144C53.7325 3.5144 51.4556 5.58843 51.4556 8.73798C51.4556 11.9066 53.7325 14 56.6907 14C59.6489 14 61.9064 11.9067 61.9064 8.73798C61.9064 5.58843 59.6488 3.5144 56.6907 3.5144ZM56.6907 12.0987C54.9392 12.0987 53.7909 10.5816 53.7909 8.73798C53.7909 6.89441 54.9391 5.3773 56.6907 5.3773C58.4423 5.3773 59.5904 6.89441 59.5904 8.73798C59.5904 10.5816 58.4422 12.0987 56.6907 12.0987Z" fill="white"/>
<path d="M68.3636 3.51452C66.8067 3.51452 65.8921 4.3595 65.347 5.51173V3.78338H63.0117V13.712H65.4055V9.17979C65.4055 6.7217 66.3786 5.55014 67.7409 5.55014C69.1616 5.55014 69.6287 6.60635 69.6287 8.10426V13.7119H71.9835V7.56655C71.9835 5.20435 70.9715 3.51452 68.3636 3.51452Z" fill="white"/>
<path d="M81.1614 0H78.6704V13.7119H87.364V11.6378H81.1614V0Z" fill="white"/>
<path d="M97.1824 7.64344C97.1824 5.35806 96.1511 3.47607 92.901 3.47607C90.2737 3.47607 88.9114 5.20442 88.6389 6.81755H90.877C91.1299 5.85736 91.8889 5.26204 92.9398 5.26204C94.1271 5.26204 94.8471 5.74213 94.8471 6.52961C94.8471 7.37458 94.2438 7.60503 92.9593 7.79707C91.5192 8.00831 88.1719 8.25796 88.1719 11.0042C88.1719 12.6174 89.4563 13.981 91.6943 13.981C93.66 13.981 94.4968 12.9248 94.8666 12.1374H94.886V12.6175C94.886 12.9824 94.9055 13.3472 94.9639 13.7121H97.3577C97.241 13.0976 97.1826 12.1182 97.1826 11.3499V7.64356L97.1824 7.64344ZM94.886 9.10294C94.886 11.4266 93.6405 12.214 92.3171 12.214C91.169 12.214 90.5267 11.6571 90.5267 10.9081C90.5267 10.1206 91.1882 9.69814 92.5507 9.44849C94.1076 9.14122 94.6525 8.69953 94.886 8.18103V9.10294Z" fill="white"/>
<path d="M104.31 3.51443C102.558 3.51443 101.469 4.62826 101.138 5.49243H101.118V0H98.6855V13.7119H101.157V12.0796H101.177C101.527 12.8862 102.578 13.9616 104.29 13.9616C107.035 13.9616 109 11.8876 109 8.71881C109 5.56937 107.054 3.51443 104.31 3.51443ZM103.804 12.0987C101.858 12.0987 100.943 10.4664 100.943 8.71869C100.943 7.00954 101.916 5.39629 103.804 5.39629C105.633 5.39629 106.645 6.85591 106.645 8.71869C106.645 10.6199 105.672 12.0987 103.804 12.0987Z" fill="white"/>
</g>
<defs>
<clipPath id="clip0_638_5340">
<rect width="109" height="14" fill="white"/>
</clipPath>
</defs>
</svg>
